PathFileType	4	(X/Y/Z)	 2.5Hzhigh3min.trc
DataRate	CameraRate	NumFrames	NumMarkers	Units	OrigDataRate	OrigDataStartFrame	OrigNumFrames
200	200	8	43	m	200	626	1000
Frame#	Time	C7			LSH			RSH			MAN			RASI			LASI			HIPR			HIPL			RPSI			LPSI			COX			RTHI1			RTHI2			RTHI3			RTHI4			RLKN			RMKN			RSHA1			RSHA2			RSHA3			RSHA4			RLMAL			RMMAL			RHEEL			RMET5			RMET1			RTOE			LTHI1			LTHI2			LTHI3			LTHI4			LLKN			LMKN			LSHA1			LSHA2			LSHA3			LSHA4			LLMAL			LMMAL			LHEEL			LMET5			LMET1			LTOE			
		X1	Y1	Z1	X2	Y2	Z2	X3	Y3	Z3	X4	Y4	Z4	X5	Y5	Z5	X6	Y6	Z6	X7	Y7	Z7	X8	Y8	Z8	X9	Y9	Z9	X10	Y10	Z10	X11	Y11	Z11	X12	Y12	Z12	X13	Y13	Z13	X14	Y14	Z14	X15	Y15	Z15	X16	Y16	Z16	X17	Y17	Z17	X18	Y18	Z18	X19	Y19	Z19	X20	Y20	Z20	X21	Y21	Z21	X22	Y22	Z22	X23	Y23	Z23	X24	Y24	Z24	X25	Y25	Z25	X26	Y26	Z26	X27	Y27	Z27	X28	Y28	Z28	X29	Y29	Z29	X30	Y30	Z30	X31	Y31	Z31	X32	Y32	Z32	X33	Y33	Z33	X34	Y34	Z34	X35	Y35	Z35	X36	Y36	Z36	X37	Y37	Z37	X38	Y38	Z38	X39	Y39	Z39	X40	Y40	Z40	X41	Y41	Z41	X42	Y42	Z42	X43	Y43	Z43	
626	3.1300	-0.260656	1.371708	-0.535919	-0.191322	1.361869	-0.697938	-0.185458	1.354425	-0.379002	-0.131392	1.321390	-0.546588	-0.110843	0.884726	-0.416949	-0.113187	0.887201	-0.662930	-0.153275	0.966496	-0.398830	-0.154866	0.961312	-0.683350	-0.272574	0.928841	-0.490633	-0.274813	0.927907	-0.578795	-0.279370	0.925795	-0.537291	-0.210599	0.729540	-0.363035	-0.203434	0.667824	-0.365853	-0.132025	0.683743	-0.362173	-0.147217	0.742092	-0.360768	-0.177658	0.456284	-0.385111	-0.163311	0.441573	-0.502671	-0.268830	0.337026	-0.374156	-0.285108	0.298690	-0.386114	-0.214826	0.316754	-0.372398	-0.228018	0.279018	-0.378994	-0.291330	0.123433	-0.413937	-0.269203	0.124531	-0.488488	-0.339640	0.122006	-0.459015	-0.209911	0.037718	-0.391215	-0.169183	0.044487	-0.455505	-0.144811	0.034791	-0.453130	-0.224974	0.728475	-0.719669	-0.216800	0.669395	-0.721650	-0.145441	0.680663	-0.728710	-0.161460	0.739792	-0.727207	-0.177952	0.467214	-0.714356	-0.181988	0.441429	-0.600278	-0.278231	0.313146	-0.733669	-0.292763	0.276369	-0.723981	-0.233555	0.260181	-0.716274	-0.225617	0.302274	-0.726665	-0.313201	0.133668	-0.705093	-0.295609	0.147426	-0.628510	-0.365107	0.139596	-0.668512	-0.241330	0.037978	-0.708384	-0.210461	0.044115	-0.633164	-0.191786	0.035701	-0.640984	
627	3.1350	-0.260744	1.378363	-0.535939	-0.191227	1.369035	-0.697440	-0.185656	1.361807	-0.379453	-0.131749	1.328543	-0.546516	-0.109693	0.891152	-0.417533	-0.112344	0.894085	-0.662786	-0.151660	0.973047	-0.398943	-0.153708	0.968545	-0.683213	-0.270965	0.936222	-0.490236	-0.273390	0.935459	-0.578406	-0.277907	0.933275	-0.536909	-0.209821	0.736434	-0.363017	-0.203195	0.674670	-0.366052	-0.131649	0.689976	-0.362689	-0.146327	0.748417	-0.361048	-0.179467	0.462815	-0.385487	-0.165277	0.448530	-0.503496	-0.269425	0.342699	-0.374322	-0.284994	0.304029	-0.386442	-0.215079	0.323110	-0.372204	-0.227673	0.285204	-0.378875	-0.288273	0.128136	-0.413670	-0.265172	0.129105	-0.487570	-0.335740	0.127252	-0.459118	-0.208972	0.038474	-0.391423	-0.168452	0.044477	-0.455731	-0.144830	0.034838	-0.453187	-0.224263	0.735803	-0.719916	-0.216545	0.676685	-0.721634	-0.145044	0.687324	-0.728059	-0.160601	0.746580	-0.726914	-0.180485	0.474335	-0.713509	-0.184135	0.448602	-0.599149	-0.277943	0.318545	-0.732789	-0.291748	0.281464	-0.723203	-0.232219	0.266301	-0.716125	-0.225106	0.308565	-0.726243	-0.309101	0.138082	-0.704749	-0.290587	0.151480	-0.628837	-0.360238	0.144563	-0.667610	-0.240233	0.038744	-0.708035	-0.209809	0.044091	-0.633224	-0.191718	0.035680	-0.641231	
628	3.1400	-0.260820	1.385090	-0.535957	-0.191139	1.376300	-0.696841	-0.185908	1.369261	-0.379977	-0.132190	1.335806	-0.546430	-0.108588	0.897742	-0.418151	-0.111574	0.901035	-0.662621	-0.150127	0.979905	-0.399164	-0.152633	0.975957	-0.683078	-0.269359	0.943789	-0.489890	-0.271993	0.943202	-0.578066	-0.276473	0.940924	-0.536578	-0.209082	0.743412	-0.362929	-0.202966	0.681608	-0.366192	-0.131297	0.696340	-0.363162	-0.145491	0.754865	-0.361269	-0.181310	0.469489	-0.385831	-0.167262	0.455629	-0.504306	-0.269892	0.348457	-0.374487	-0.284685	0.309454	-0.386726	-0.215217	0.329705	-0.371933	-0.227126	0.291602	-0.378649	-0.284782	0.132892	-0.413240	-0.260656	0.133788	-0.486487	-0.331391	0.132662	-0.459139	-0.207957	0.039267	-0.391618	-0.167641	0.044564	-0.455906	-0.144841	0.034911	-0.453145	-0.223478	0.743202	-0.720286	-0.216206	0.684060	-0.721728	-0.144568	0.694074	-0.727436	-0.159668	0.753456	-0.726679	-0.183173	0.481595	-0.712697	-0.186349	0.455968	-0.598006	-0.277453	0.324028	-0.731824	-0.290442	0.286640	-0.722415	-0.230595	0.272587	-0.715975	-0.224392	0.315054	-0.725785	-0.304501	0.142527	-0.704439	-0.284964	0.155571	-0.629190	-0.354890	0.149695	-0.666659	-0.238962	0.039623	-0.707647	-0.208980	0.044160	-0.633317	-0.191501	0.035661	-0.641544	
629	3.1450	-0.260870	1.391822	-0.535972	-0.191049	1.383585	-0.696143	-0.186206	1.376717	-0.380571	-0.132706	1.343085	-0.546331	-0.107537	0.904440	-0.418788	-0.110888	0.907984	-0.662433	-0.148674	0.987054	-0.399517	-0.151626	0.983521	-0.682913	-0.267771	0.951466	-0.489603	-0.270630	0.951059	-0.577798	-0.275081	0.948675	-0.536311	-0.208411	0.750430	-0.362810	-0.202779	0.688593	-0.366302	-0.130997	0.702773	-0.363579	-0.144731	0.761375	-0.361440	-0.183210	0.476264	-0.386153	-0.169233	0.462761	-0.505102	-0.270262	0.354248	-0.374686	-0.284206	0.314914	-0.386981	-0.215255	0.336466	-0.371619	-0.226394	0.298150	-0.378332	-0.280833	0.137661	-0.412643	-0.255724	0.138543	-0.485255	-0.326661	0.138179	-0.459013	-0.206733	0.040171	-0.391881	-0.166697	0.044762	-0.455969	-0.144800	0.035005	-0.452935	-0.222667	0.750634	-0.720706	-0.215843	0.691470	-0.721880	-0.144071	0.700872	-0.726844	-0.158720	0.760369	-0.726479	-0.185979	0.488887	-0.711901	-0.188623	0.463438	-0.596818	-0.276794	0.329570	-0.730770	-0.288873	0.291847	-0.721606	-0.228716	0.279021	-0.715833	-0.223521	0.321705	-0.725301	-0.299480	0.146995	-0.704214	-0.278866	0.159701	-0.629559	-0.349167	0.154965	-0.665755	-0.237448	0.040665	-0.707359	-0.207817	0.044461	-0.633457	-0.191027	0.035669	-0.641980	
630	3.1500	-0.260885	1.398498	-0.535985	-0.190957	1.390814	-0.695345	-0.186525	1.384069	-0.381252	-0.133282	1.350291	-0.546226	-0.106551	0.911186	-0.419430	-0.110290	0.914872	-0.662220	-0.147302	0.994436	-0.400008	-0.150668	0.991187	-0.682681	-0.266220	0.959181	-0.489388	-0.269316	0.958953	-0.577624	-0.273749	0.956454	-0.536117	-0.207825	0.757445	-0.362702	-0.202667	0.695579	-0.366402	-0.130779	0.709227	-0.363939	-0.144065	0.767901	-0.361576	-0.185190	0.483100	-0.386447	-0.171120	0.469832	-0.505898	-0.270526	0.360005	-0.374977	-0.283569	0.320345	-0.387228	-0.215222	0.343326	-0.371300	-0.225531	0.304770	-0.377936	-0.276502	0.142428	-0.411861	-0.250455	0.143386	-0.483945	-0.321672	0.143759	-0.458751	-0.205270	0.041307	-0.392174	-0.165579	0.045157	-0.455820	-0.144620	0.035134	-0.452453	-0.221877	0.758063	-0.721122	-0.215508	0.698884	-0.722041	-0.143615	0.707676	-0.726290	-0.157806	0.767275	-0.726293	-0.188873	0.496115	-0.711117	-0.190947	0.470916	-0.595581	-0.276027	0.335110	-0.729643	-0.287106	0.297044	-0.720771	-0.226652	0.285555	-0.715724	-0.222549	0.328462	-0.724806	-0.294179	0.151499	-0.704105	-0.272482	0.163898	-0.629932	-0.343231	0.160349	-0.664988	-0.235656	0.042007	-0.707147	-0.206271	0.045082	-0.633648	-0.190199	0.035744	-0.642480	
631	3.1550	-0.260859	1.405040	-0.535995	-0.190863	1.397918	-0.694452	-0.186836	1.391238	-0.382024	-0.133894	1.357345	-0.546121	-0.105642	0.917926	-0.420072	-0.109781	0.921652	-0.661985	-0.146015	1.001962	-0.400640	-0.149771	0.998874	-0.682371	-0.264729	0.966867	-0.489246	-0.268073	0.966810	-0.577552	-0.272501	0.964198	-0.535998	-0.207341	0.764415	-0.362628	-0.202654	0.702519	-0.366506	-0.130663	0.715637	-0.364242	-0.143507	0.774392	-0.361697	-0.187261	0.489932	-0.386697	-0.172888	0.476762	-0.506671	-0.270696	0.365671	-0.375361	-0.282792	0.325699	-0.387478	-0.215117	0.350189	-0.370991	-0.224561	0.311381	-0.377487	-0.271938	0.147193	-0.410896	-0.245039	0.148308	-0.482598	-0.316604	0.149343	-0.458324	-0.203629	0.042649	-0.392289	-0.164146	0.045924	-0.455362	-0.144123	0.035397	-0.451606	-0.221153	0.765463	-0.721489	-0.215252	0.706252	-0.722167	-0.143251	0.714437	-0.725768	-0.156968	0.774136	-0.726117	-0.191820	0.503187	-0.710357	-0.193287	0.478299	-0.594309	-0.275218	0.340591	-0.728457	-0.285225	0.302198	-0.719901	-0.224487	0.292140	-0.715656	-0.221555	0.335233	-0.724311	-0.288777	0.156069	-0.704108	-0.266064	0.168209	-0.630289	-0.337286	0.165829	-0.664421	-0.233551	0.043800	-0.706948	-0.204279	0.046103	-0.633901	-0.188931	0.035910	-0.643077	
632	3.1600	-0.260787	1.411368	-0.535995	-0.190761	1.404842	-0.693495	-0.187116	1.398191	-0.382839	-0.134522	1.364165	-0.546031	-0.104814	0.924602	-0.420702	-0.109362	0.928284	-0.661732	-0.144820	1.009521	-0.401394	-0.148941	1.006499	-0.681977	-0.263327	0.974456	-0.489179	-0.266921	0.974569	-0.577587	-0.271352	0.971850	-0.535950	-0.206969	0.771297	-0.362606	-0.202750	0.709370	-0.366620	-0.130660	0.721954	-0.364498	-0.143066	0.780788	-0.361821	-0.189394	0.496672	-0.386905	-0.174507	0.483476	-0.507398	-0.270775	0.371174	-0.375816	-0.281903	0.330898	-0.387750	-0.214944	0.356934	-0.370732	-0.223516	0.317864	-0.377000	-0.267353	0.151981	-0.409823	-0.239740	0.153298	-0.481277	-0.311662	0.154846	-0.457740	-0.201741	0.044542	-0.392239	-0.162419	0.047240	-0.454509	-0.143196	0.036066	-0.450240	-0.220536	0.772796	-0.721777	-0.215122	0.713535	-0.722227	-0.143029	0.721105	-0.725299	-0.156249	0.780911	-0.725941	-0.194773	0.510027	-0.709638	-0.195623	0.485495	-0.593044	-0.274444	0.345953	-0.727223	-0.283345	0.307237	-0.718979	-0.222350	0.298670	-0.715624	-0.220629	0.341914	-0.723838	-0.283483	0.160730	-0.704190	-0.259890	0.172674	-0.630613	-0.331547	0.171350	-0.664046	-0.231171	0.046141	-0.706732	-0.201888	0.047608	-0.634242	-0.187183	0.036253	-0.643839	
633	3.1650	-0.260673	1.417425	-0.535980	-0.190706	1.411516	-0.692509	-0.187333	1.404887	-0.383694	-0.135085	1.370705	-0.545960	-0.104074	0.931162	-0.421313	-0.109029	0.934722	-0.661465	-0.143720	1.017006	-0.402247	-0.148184	1.013969	-0.681513	-0.262040	0.981894	-0.489172	-0.265872	0.982171	-0.577710	-0.270319	0.979358	-0.535967	-0.206708	0.778041	-0.362647	-0.202958	0.716086	-0.366743	-0.130774	0.728137	-0.364713	-0.142735	0.787041	-0.361962	-0.191520	0.503223	-0.387072	-0.175999	0.489893	-0.508033	-0.270724	0.376428	-0.376354	-0.280952	0.335888	-0.388019	-0.214703	0.363415	-0.370523	-0.222437	0.324093	-0.376505	-0.262986	0.156768	-0.408760	-0.234834	0.158327	-0.480042	-0.307072	0.160167	-0.457041	-0.199573	0.047066	-0.392043	-0.160295	0.049328	-0.453322	-0.141731	0.037533	-0.448585	-0.220063	0.780005	-0.721955	-0.215148	0.720698	-0.722219	-0.142972	0.727652	-0.724889	-0.155686	0.787565	-0.725754	-0.197661	0.516561	-0.708976	-0.197895	0.492420	-0.591833	-0.273769	0.351124	-0.725939	-0.281562	0.312113	-0.717988	-0.220352	0.305044	-0.715639	-0.219842	0.348407	-0.723428	-0.278504	0.165472	-0.704272	-0.254192	0.177313	-0.630885	-0.326206	0.176831	-0.663792	-0.228586	0.049080	-0.706541	-0.199100	0.049668	-0.634744	-0.185045	0.036909	-0.644893	
